<?xml version="1.0" encoding="utf-8"?>
<!-- Generator: Adobe Illustrator 19.2.1, SVG Export Plug-In . SVG Version: 6.00 Build 0)  -->
<svg version="1.1" id="layer" xmlns="http://www.w3.org/2000/svg" xmlns:xlink="http://www.w3.org/1999/xlink" x="0px" y="0px"
	 viewBox="0 0 652 652" style="enable-background:new 0 0 652 652;" xml:space="preserve">
<style type="text/css">
	.st0{clip-path:url(#SVGID_2_);fill:url(#SVGID_3_);}
	.st1{fill:#FFFFFF;}
</style>
<g>
	<defs>
		<path id="SVGID_1_" d="M26.5,327.2c0,34.9,28.3,63.2,63.3,63.2c34.9,0,63.2-28.3,63.2-63.2c0-34.9-28.3-63.2-63.2-63.2
			C54.9,264,26.5,292.3,26.5,327.2"/>
	</defs>
	<clipPath id="SVGID_2_">
		<use xlink:href="#SVGID_1_"  style="overflow:visible;"/>
	</clipPath>
	
		<linearGradient id="SVGID_3_" gradientUnits="userSpaceOnUse" x1="42.3711" y1="729.4517" x2="47.9862" y2="729.4517" gradientTransform="matrix(0 22.2733 22.2733 0 -16157.5098 -677.7598)">
		<stop  offset="0" style="stop-color:#EA5514"/>
		<stop  offset="0.5786" style="stop-color:#E62550"/>
		<stop  offset="1" style="stop-color:#E3007F"/>
	</linearGradient>
	<rect x="26.5" y="264" class="st0" width="126.5" height="126.5"/>
</g>
<path class="st1" d="M79,303.8l40.6,23.4L79,350.7V303.8z M73.5,294.4v65.7l56.9-32.9L73.5,294.4z"/>
<path class="st1" d="M65.9,311L94,327.2l-28.2,16.3V311z M60.4,301.5v51.4l44.5-25.7L60.4,301.5z"/>
</svg>
