<svg xmlns="http://www.w3.org/2000/svg">
<path id="svg_13" fill="#BCBBBB" d="m45.88648,39.91661l0,10.4377l-24.58617,0l0,-10.4377l-3.7037,0l0,14.1414l31.9865,0l0,-14.1414l-3.69663,0z"/>
<path id="svg_14" fill="#F48024" d="m24.6865,46.98731l17.82591,0l0,-3.367l-17.82591,0l0,3.367zm0.35623,-8.05218l17.31614,3.63434l0.71246,-3.45623l-17.31581,-3.63434l-0.71279,3.45623zm2.28047,-8.30168l16.03332,7.48215l1.49629,-3.20673l-16.03332,-7.48215l-1.49629,3.20673zm4.45353,-7.87407l13.61042,11.32995l2.28047,-2.70774l-13.64645,-11.32995l-2.24444,2.70774zm8.76497,-8.37306l-2.85084,2.10202l10.54645,14.21615l2.85017,-2.10202l-10.54578,-14.21615z"/>
</svg>
